<mxfile host="app.diagrams.net" modified="2023-05-19T09:02:27.655Z" agent="Mozilla/5.0 (Windows NT 10.0; Win64; x64) AppleWebKit/537.36 (KHTML, like Gecko) Chrome/113.0.0.0 Safari/537.36" etag="2605ZQst9LCA9cWXYhMy" version="21.3.2" type="device" pages="3">
  <diagram name="contacto-MOVIL" id="TZoL4eahMLcq_TkRRFJu">
    <mxGraphModel dx="2049" dy="1137" grid="1" gridSize="10" guides="1" tooltips="1" connect="1" arrows="1" fold="1" page="1" pageScale="1" pageWidth="660" pageHeight="1169" math="0" shadow="0">
      <root>
        <mxCell id="0" />
        <mxCell id="1" parent="0" />
        <mxCell id="Yz_11YEBDaWQhqgs5p3R-1" value="" style="rounded=0;whiteSpace=wrap;html=1;" vertex="1" parent="1">
          <mxGeometry width="660" height="90" as="geometry" />
        </mxCell>
        <mxCell id="Yz_11YEBDaWQhqgs5p3R-2" value="" style="rounded=0;whiteSpace=wrap;html=1;" vertex="1" parent="1">
          <mxGeometry y="90" width="660" height="390" as="geometry" />
        </mxCell>
        <mxCell id="Yz_11YEBDaWQhqgs5p3R-3" value="" style="rounded=0;whiteSpace=wrap;html=1;" vertex="1" parent="1">
          <mxGeometry y="900" width="660" height="209" as="geometry" />
        </mxCell>
        <mxCell id="Yz_11YEBDaWQhqgs5p3R-4" value="LOGO" style="rounded=0;whiteSpace=wrap;html=1;" vertex="1" parent="1">
          <mxGeometry x="20" y="15" width="120" height="60" as="geometry" />
        </mxCell>
        <mxCell id="Yz_11YEBDaWQhqgs5p3R-5" value="MENU HAMBURGUESA" style="rounded=0;whiteSpace=wrap;html=1;" vertex="1" parent="1">
          <mxGeometry x="510" y="15" width="110" height="60" as="geometry" />
        </mxCell>
        <mxCell id="Yz_11YEBDaWQhqgs5p3R-9" value="SECCIÓN 1" style="rounded=0;whiteSpace=wrap;html=1;" vertex="1" parent="1">
          <mxGeometry x="30" y="920" width="120" height="160" as="geometry" />
        </mxCell>
        <mxCell id="Yz_11YEBDaWQhqgs5p3R-10" value="SECCIÓN 2" style="rounded=0;whiteSpace=wrap;html=1;" vertex="1" parent="1">
          <mxGeometry x="210" y="920" width="120" height="160" as="geometry" />
        </mxCell>
        <mxCell id="Yz_11YEBDaWQhqgs5p3R-11" value="INFO EXTRA" style="rounded=0;whiteSpace=wrap;html=1;" vertex="1" parent="1">
          <mxGeometry x="350" y="1020" width="270" height="60" as="geometry" />
        </mxCell>
        <mxCell id="Yz_11YEBDaWQhqgs5p3R-12" value="MAPA GOOGLE MAPS" style="rounded=0;whiteSpace=wrap;html=1;" vertex="1" parent="1">
          <mxGeometry y="480" width="660" height="420" as="geometry" />
        </mxCell>
        <mxCell id="Yz_11YEBDaWQhqgs5p3R-13" value="TÍTULO CONTACTO" style="rounded=1;whiteSpace=wrap;html=1;" vertex="1" parent="1">
          <mxGeometry x="20" y="180" width="225" height="60" as="geometry" />
        </mxCell>
        <mxCell id="Yz_11YEBDaWQhqgs5p3R-17" value="NOMBRE DE EMPRESA" style="rounded=0;whiteSpace=wrap;html=1;" vertex="1" parent="1">
          <mxGeometry x="170" y="15" width="180" height="60" as="geometry" />
        </mxCell>
        <mxCell id="Yz_11YEBDaWQhqgs5p3R-18" value="FORMULARIO DE CONTACTO" style="rounded=1;whiteSpace=wrap;html=1;" vertex="1" parent="1">
          <mxGeometry x="300" y="180" width="300" height="150" as="geometry" />
        </mxCell>
        <mxCell id="Yz_11YEBDaWQhqgs5p3R-19" value="BOTÓN ENVIAR" style="rounded=1;whiteSpace=wrap;html=1;" vertex="1" parent="1">
          <mxGeometry x="345" y="350" width="210" height="60" as="geometry" />
        </mxCell>
        <mxCell id="Yz_11YEBDaWQhqgs5p3R-20" value="TEXTO" style="rounded=0;whiteSpace=wrap;html=1;" vertex="1" parent="1">
          <mxGeometry x="20" y="280" width="240" height="110" as="geometry" />
        </mxCell>
      </root>
    </mxGraphModel>
  </diagram>
  <diagram id="n6h6UJSTNeLYFLjLnTTe" name="contacto-TABLET">
    <mxGraphModel dx="3585" dy="1990" grid="1" gridSize="10" guides="1" tooltips="1" connect="1" arrows="1" fold="1" page="1" pageScale="1" pageWidth="660" pageHeight="1169" math="0" shadow="0">
      <root>
        <mxCell id="0" />
        <mxCell id="1" parent="0" />
        <mxCell id="BxH5dZSR6Ax5T-esXa7e-1" value="" style="rounded=0;whiteSpace=wrap;html=1;" vertex="1" parent="1">
          <mxGeometry width="850" height="90" as="geometry" />
        </mxCell>
        <mxCell id="BxH5dZSR6Ax5T-esXa7e-2" value="" style="rounded=0;whiteSpace=wrap;html=1;" vertex="1" parent="1">
          <mxGeometry y="90" width="850" height="870" as="geometry" />
        </mxCell>
        <mxCell id="BxH5dZSR6Ax5T-esXa7e-3" value="" style="rounded=0;whiteSpace=wrap;html=1;" vertex="1" parent="1">
          <mxGeometry y="1380" width="850" height="209" as="geometry" />
        </mxCell>
        <mxCell id="BxH5dZSR6Ax5T-esXa7e-4" value="LOGO" style="rounded=0;whiteSpace=wrap;html=1;" vertex="1" parent="1">
          <mxGeometry x="20" y="15" width="120" height="60" as="geometry" />
        </mxCell>
        <mxCell id="BxH5dZSR6Ax5T-esXa7e-5" value="MENU HAMBURGUESA" style="rounded=0;whiteSpace=wrap;html=1;" vertex="1" parent="1">
          <mxGeometry x="690" y="15" width="110" height="60" as="geometry" />
        </mxCell>
        <mxCell id="BxH5dZSR6Ax5T-esXa7e-9" value="SECCIÓN 1" style="rounded=0;whiteSpace=wrap;html=1;" vertex="1" parent="1">
          <mxGeometry x="30" y="1400" width="170" height="160" as="geometry" />
        </mxCell>
        <mxCell id="BxH5dZSR6Ax5T-esXa7e-10" value="SECCIÓN 2" style="rounded=0;whiteSpace=wrap;html=1;" vertex="1" parent="1">
          <mxGeometry x="290" y="1400" width="175" height="160" as="geometry" />
        </mxCell>
        <mxCell id="BxH5dZSR6Ax5T-esXa7e-11" value="INFO EXTRA" style="rounded=0;whiteSpace=wrap;html=1;" vertex="1" parent="1">
          <mxGeometry x="550" y="1500" width="270" height="60" as="geometry" />
        </mxCell>
        <mxCell id="BxH5dZSR6Ax5T-esXa7e-12" value="MAPA GOOGLE MAPS" style="rounded=0;whiteSpace=wrap;html=1;" vertex="1" parent="1">
          <mxGeometry y="960" width="850" height="420" as="geometry" />
        </mxCell>
        <mxCell id="BxH5dZSR6Ax5T-esXa7e-17" value="NOMBRE DE EMPRESA" style="rounded=0;whiteSpace=wrap;html=1;" vertex="1" parent="1">
          <mxGeometry x="170" y="15" width="180" height="60" as="geometry" />
        </mxCell>
        <mxCell id="hci-HO77PwcQCI6jQE0P-1" value="TÍTULO CONTACTO" style="rounded=1;whiteSpace=wrap;html=1;" vertex="1" parent="1">
          <mxGeometry x="255" y="140" width="340" height="80" as="geometry" />
        </mxCell>
        <mxCell id="hci-HO77PwcQCI6jQE0P-2" value="FORMULARIO DE CONTACTO" style="rounded=1;whiteSpace=wrap;html=1;" vertex="1" parent="1">
          <mxGeometry x="197.5" y="450" width="455" height="220" as="geometry" />
        </mxCell>
        <mxCell id="hci-HO77PwcQCI6jQE0P-3" value="BOTÓN ENVIAR" style="rounded=1;whiteSpace=wrap;html=1;" vertex="1" parent="1">
          <mxGeometry x="320" y="700" width="210" height="60" as="geometry" />
        </mxCell>
        <mxCell id="hci-HO77PwcQCI6jQE0P-4" value="TEXTO" style="rounded=0;whiteSpace=wrap;html=1;" vertex="1" parent="1">
          <mxGeometry x="230" y="250" width="390" height="160" as="geometry" />
        </mxCell>
      </root>
    </mxGraphModel>
  </diagram>
  <diagram id="NVYdSkPW2yQ1RZRgaPIc" name="contacto-ESCRITORIO">
    <mxGraphModel dx="2868" dy="1592" grid="1" gridSize="10" guides="1" tooltips="1" connect="1" arrows="1" fold="1" page="1" pageScale="1" pageWidth="660" pageHeight="1169" math="0" shadow="0">
      <root>
        <mxCell id="0" />
        <mxCell id="1" parent="0" />
        <mxCell id="YctQWs-YCnYfzAZLL_IW-1" value="" style="rounded=0;whiteSpace=wrap;html=1;" vertex="1" parent="1">
          <mxGeometry width="1580" height="90" as="geometry" />
        </mxCell>
        <mxCell id="YctQWs-YCnYfzAZLL_IW-2" value="" style="rounded=0;whiteSpace=wrap;html=1;" vertex="1" parent="1">
          <mxGeometry y="90" width="1580" height="870" as="geometry" />
        </mxCell>
        <mxCell id="YctQWs-YCnYfzAZLL_IW-3" value="" style="rounded=0;whiteSpace=wrap;html=1;" vertex="1" parent="1">
          <mxGeometry y="1380" width="1580" height="209" as="geometry" />
        </mxCell>
        <mxCell id="YctQWs-YCnYfzAZLL_IW-4" value="LOGO" style="rounded=0;whiteSpace=wrap;html=1;" vertex="1" parent="1">
          <mxGeometry x="20" y="15" width="120" height="60" as="geometry" />
        </mxCell>
        <mxCell id="YctQWs-YCnYfzAZLL_IW-5" value="MENU" style="rounded=0;whiteSpace=wrap;html=1;" vertex="1" parent="1">
          <mxGeometry x="390" y="15" width="910" height="60" as="geometry" />
        </mxCell>
        <mxCell id="YctQWs-YCnYfzAZLL_IW-9" value="SECCIÓN 1" style="rounded=0;whiteSpace=wrap;html=1;" vertex="1" parent="1">
          <mxGeometry x="90" y="1400" width="170" height="160" as="geometry" />
        </mxCell>
        <mxCell id="YctQWs-YCnYfzAZLL_IW-10" value="SECCIÓN 2" style="rounded=0;whiteSpace=wrap;html=1;" vertex="1" parent="1">
          <mxGeometry x="330" y="1400" width="175" height="160" as="geometry" />
        </mxCell>
        <mxCell id="YctQWs-YCnYfzAZLL_IW-11" value="INFO EXTRA" style="rounded=0;whiteSpace=wrap;html=1;" vertex="1" parent="1">
          <mxGeometry x="1250" y="1480" width="270" height="70" as="geometry" />
        </mxCell>
        <mxCell id="YctQWs-YCnYfzAZLL_IW-12" value="MAPA GOOGLE MAPS" style="rounded=0;whiteSpace=wrap;html=1;" vertex="1" parent="1">
          <mxGeometry y="960" width="1580" height="420" as="geometry" />
        </mxCell>
        <mxCell id="YctQWs-YCnYfzAZLL_IW-17" value="NOMBRE DE EMPRESA" style="rounded=0;whiteSpace=wrap;html=1;" vertex="1" parent="1">
          <mxGeometry x="170" y="15" width="180" height="60" as="geometry" />
        </mxCell>
        <mxCell id="gs8NT0dKE50hJMwr2vhj-1" value="TÍTULO CONTACTO" style="rounded=1;whiteSpace=wrap;html=1;" vertex="1" parent="1">
          <mxGeometry x="607.5" y="170" width="340" height="80" as="geometry" />
        </mxCell>
        <mxCell id="gs8NT0dKE50hJMwr2vhj-2" value="FORMULARIO DE CONTACTO" style="rounded=1;whiteSpace=wrap;html=1;" vertex="1" parent="1">
          <mxGeometry x="550" y="480" width="455" height="220" as="geometry" />
        </mxCell>
        <mxCell id="gs8NT0dKE50hJMwr2vhj-3" value="BOTÓN ENVIAR" style="rounded=1;whiteSpace=wrap;html=1;" vertex="1" parent="1">
          <mxGeometry x="672.5" y="730" width="210" height="60" as="geometry" />
        </mxCell>
        <mxCell id="gs8NT0dKE50hJMwr2vhj-4" value="TEXTO" style="rounded=0;whiteSpace=wrap;html=1;" vertex="1" parent="1">
          <mxGeometry x="582.5" y="280" width="390" height="160" as="geometry" />
        </mxCell>
      </root>
    </mxGraphModel>
  </diagram>
</mxfile>
